<mxfile host="app.diagrams.net" agent="Mozilla/5.0 (Windows NT 10.0; Win64; x64) AppleWebKit/537.36 (KHTML, like Gecko) Chrome/131.0.0.0 Safari/537.36" version="26.0.8">
  <diagram name="Page-1" id="WEihKRuXas7AYv6Y4sjq">
    <mxGraphModel dx="913" dy="813" grid="1" gridSize="10" guides="1" tooltips="1" connect="1" arrows="1" fold="1" page="1" pageScale="1" pageWidth="500" pageHeight="1500" math="0" shadow="0">
      <root>
        <mxCell id="0" />
        <mxCell id="1" parent="0" />
        <mxCell id="9K-0OFQSS1LYaO3v6ocY-1" value="" style="rounded=0;whiteSpace=wrap;html=1;" vertex="1" parent="1">
          <mxGeometry x="280" y="120" width="440" height="120" as="geometry" />
        </mxCell>
        <mxCell id="9K-0OFQSS1LYaO3v6ocY-2" value="Title" style="text;strokeColor=none;fillColor=none;html=1;fontSize=24;fontStyle=1;verticalAlign=middle;align=center;" vertex="1" parent="1">
          <mxGeometry x="377.5" y="160" width="245" height="40" as="geometry" />
        </mxCell>
        <mxCell id="9K-0OFQSS1LYaO3v6ocY-4" value="" style="rounded=0;whiteSpace=wrap;html=1;" vertex="1" parent="1">
          <mxGeometry x="280" y="240" width="440" height="480" as="geometry" />
        </mxCell>
        <mxCell id="9K-0OFQSS1LYaO3v6ocY-5" value="" style="endArrow=none;html=1;rounded=0;entryX=0;entryY=1;entryDx=0;entryDy=0;exitX=1;exitY=0;exitDx=0;exitDy=0;" edge="1" parent="1" source="9K-0OFQSS1LYaO3v6ocY-4" target="9K-0OFQSS1LYaO3v6ocY-4">
          <mxGeometry width="50" height="50" relative="1" as="geometry">
            <mxPoint x="640" y="240" as="sourcePoint" />
            <mxPoint x="616.3636363636363" y="370" as="targetPoint" />
          </mxGeometry>
        </mxCell>
        <mxCell id="9K-0OFQSS1LYaO3v6ocY-6" value="" style="endArrow=none;html=1;rounded=0;entryX=0;entryY=0;entryDx=0;entryDy=0;exitX=1;exitY=1;exitDx=0;exitDy=0;" edge="1" parent="1" source="9K-0OFQSS1LYaO3v6ocY-4" target="9K-0OFQSS1LYaO3v6ocY-4">
          <mxGeometry width="50" height="50" relative="1" as="geometry">
            <mxPoint x="383.64" y="280" as="sourcePoint" />
            <mxPoint x="360.00363636363625" y="410" as="targetPoint" />
          </mxGeometry>
        </mxCell>
        <mxCell id="9K-0OFQSS1LYaO3v6ocY-7" value="&lt;font style=&quot;font-size: 14px;&quot;&gt;Small Image&lt;/font&gt;" style="text;html=1;align=center;verticalAlign=middle;whiteSpace=wrap;rounded=0;" vertex="1" parent="1">
          <mxGeometry x="425" y="400" width="150" height="30" as="geometry" />
        </mxCell>
        <mxCell id="9K-0OFQSS1LYaO3v6ocY-9" value="" style="rounded=0;whiteSpace=wrap;html=1;" vertex="1" parent="1">
          <mxGeometry x="300" y="740" width="400" height="220" as="geometry" />
        </mxCell>
        <mxCell id="9K-0OFQSS1LYaO3v6ocY-11" value="" style="rounded=0;whiteSpace=wrap;html=1;" vertex="1" parent="1">
          <mxGeometry x="300" y="980" width="400" height="220" as="geometry" />
        </mxCell>
        <mxCell id="9K-0OFQSS1LYaO3v6ocY-12" value="" style="rounded=0;whiteSpace=wrap;html=1;" vertex="1" parent="1">
          <mxGeometry x="300" y="1220" width="400" height="60" as="geometry" />
        </mxCell>
      </root>
    </mxGraphModel>
  </diagram>
</mxfile>
